<svg width="24" height="24" viewBox="0 0 24 24" fill="none" xmlns="http://www.w3.org/2000/svg">
<path fill-rule="evenodd" clip-rule="evenodd" d="M11 4.0698V2.0498C8.99 2.2498 7.16 3.0498 5.68 4.2598L7.1 5.6898C8.21 4.8298 9.54 4.2498 11 4.0698ZM18.32 4.2598C16.84 3.0498 15.01 2.2498 13 2.0498V4.0698C14.46 4.2498 15.79 4.8298 16.9 5.6898L18.32 4.2598ZM21.95 10.9998H19.93C19.75 9.5398 19.17 8.2098 18.31 7.0998L19.74 5.6798C20.95 7.1598 21.75 8.98981 21.95 10.9998ZM5.69 7.0998L4.26 5.6798C3.05 7.1598 2.25 8.98981 2.05 10.9998H4.07C4.25 9.5398 4.83 8.2098 5.69 7.0998ZM2.05 12.9998H4.07C4.25 14.4598 4.83 15.7898 5.69 16.8898L4.26 18.3198C3.05 16.8398 2.25 15.0098 2.05 12.9998ZM15 11.9998C15 10.3398 13.66 8.9998 12 8.9998C10.34 8.9998 9 10.3398 9 11.9998C9 13.6598 10.34 14.9998 12 14.9998C13.66 14.9998 15 13.6598 15 11.9998ZM19.74 18.3298L18.31 16.8998C19.17 15.7898 19.75 14.4598 19.93 13.0098H21.95C21.75 15.0098 20.95 16.8498 19.74 18.3298ZM13 19.9298V21.9498C15.01 21.7498 16.84 20.9498 18.32 19.7398L16.89 18.3098C15.79 19.1698 14.46 19.7498 13 19.9298ZM11 21.9498C9 21.7498 7.16 20.9498 5.68 19.7398L7.1 18.3098C8.21 19.1698 9.54 19.7498 11 19.9298V21.9498Z" fill="#009DDC"/>
</svg>
