<svg width="20" height="20" viewBox="0 0 20 20" fill="none" xmlns="http://www.w3.org/2000/svg">
<path fill-rule="evenodd" clip-rule="evenodd" d="M8.99999 2.0698V0.0498047C6.98999 0.249805 5.15999 1.0498 3.67999 2.2598L5.09999 3.6898C6.20999 2.8298 7.53999 2.2498 8.99999 2.0698ZM16.32 2.2598C14.84 1.0498 13.01 0.249805 11 0.0498047V2.0698C12.46 2.2498 13.79 2.8298 14.9 3.6898L16.32 2.2598ZM19.95 8.99981H17.93C17.75 7.5398 17.17 6.2098 16.31 5.0998L17.74 3.6798C18.95 5.1598 19.75 6.98981 19.95 8.99981ZM3.68999 5.0998L2.25999 3.6798C1.04999 5.1598 0.249988 6.98981 0.0499878 8.99981H2.06999C2.24999 7.5398 2.82999 6.2098 3.68999 5.0998ZM0.0499878 10.9998H2.06999C2.24999 12.4598 2.82999 13.7898 3.68999 14.8898L2.25999 16.3198C1.04999 14.8398 0.249988 13.0098 0.0499878 10.9998ZM13 9.9998C13 8.3398 11.66 6.9998 9.99999 6.9998C8.33999 6.9998 6.99999 8.3398 6.99999 9.9998C6.99999 11.6598 8.33999 12.9998 9.99999 12.9998C11.66 12.9998 13 11.6598 13 9.9998ZM17.74 16.3298L16.31 14.8998C17.17 13.7898 17.75 12.4598 17.93 11.0098H19.95C19.75 13.0098 18.95 14.8498 17.74 16.3298ZM11 17.9298V19.9498C13.01 19.7498 14.84 18.9498 16.32 17.7398L14.89 16.3098C13.79 17.1698 12.46 17.7498 11 17.9298ZM8.99999 19.9498C6.99999 19.7498 5.15999 18.9498 3.67999 17.7398L5.09999 16.3098C6.20999 17.1698 7.53999 17.7498 8.99999 17.9298V19.9498Z" fill="gray" fill-opacity="0.5"/>
</svg>
